<mxfile host="app.diagrams.net" agent="Mozilla/5.0 (Windows NT 10.0; Win64; x64) AppleWebKit/537.36 (KHTML, like Gecko) Chrome/132.0.0.0 Safari/537.36 Edg/132.0.0.0" version="26.0.10">
  <diagram name="Page-1" id="Y8bfKlNHQ7mRhxcNyyJZ">
    <mxGraphModel dx="1112" dy="469" grid="1" gridSize="10" guides="1" tooltips="1" connect="1" arrows="1" fold="1" page="1" pageScale="1" pageWidth="850" pageHeight="1100" math="0" shadow="0">
      <root>
        <mxCell id="0" />
        <mxCell id="1" parent="0" />
        <mxCell id="NDZWHzE1N5iHO30wIajI-16" style="edgeStyle=orthogonalEdgeStyle;rounded=0;orthogonalLoop=1;jettySize=auto;html=1;" edge="1" parent="1" source="NDZWHzE1N5iHO30wIajI-1">
          <mxGeometry relative="1" as="geometry">
            <mxPoint x="230" y="514" as="targetPoint" />
          </mxGeometry>
        </mxCell>
        <mxCell id="NDZWHzE1N5iHO30wIajI-1" value="" style="shape=image;html=1;verticalAlign=top;verticalLabelPosition=bottom;labelBackgroundColor=#ffffff;imageAspect=0;aspect=fixed;image=https://cdn2.iconfinder.com/data/icons/whcompare-isometric-web-hosting-servers/50/root-access-128.png" vertex="1" parent="1">
          <mxGeometry x="20" y="450" width="128" height="128" as="geometry" />
        </mxCell>
        <mxCell id="NDZWHzE1N5iHO30wIajI-18" style="edgeStyle=orthogonalEdgeStyle;rounded=0;orthogonalLoop=1;jettySize=auto;html=1;exitX=0;exitY=0.7;exitDx=0;exitDy=0;" edge="1" parent="1" source="NDZWHzE1N5iHO30wIajI-5">
          <mxGeometry relative="1" as="geometry">
            <mxPoint x="640" y="540" as="targetPoint" />
          </mxGeometry>
        </mxCell>
        <mxCell id="NDZWHzE1N5iHO30wIajI-5" value="" style="shape=datastore;whiteSpace=wrap;html=1;" vertex="1" parent="1">
          <mxGeometry x="720" y="483.5" width="80" height="80" as="geometry" />
        </mxCell>
        <mxCell id="NDZWHzE1N5iHO30wIajI-17" style="edgeStyle=orthogonalEdgeStyle;rounded=0;orthogonalLoop=1;jettySize=auto;html=1;entryX=0;entryY=0.5;entryDx=0;entryDy=0;" edge="1" parent="1" source="NDZWHzE1N5iHO30wIajI-7" target="NDZWHzE1N5iHO30wIajI-5">
          <mxGeometry relative="1" as="geometry" />
        </mxCell>
        <mxCell id="NDZWHzE1N5iHO30wIajI-19" style="edgeStyle=orthogonalEdgeStyle;rounded=0;orthogonalLoop=1;jettySize=auto;html=1;exitX=0;exitY=0.75;exitDx=0;exitDy=0;" edge="1" parent="1" source="NDZWHzE1N5iHO30wIajI-7">
          <mxGeometry relative="1" as="geometry">
            <mxPoint x="150" y="560" as="targetPoint" />
          </mxGeometry>
        </mxCell>
        <mxCell id="NDZWHzE1N5iHO30wIajI-7" value="EC2 instance contents" style="points=[[0,0],[0.25,0],[0.5,0],[0.75,0],[1,0],[1,0.25],[1,0.5],[1,0.75],[1,1],[0.75,1],[0.5,1],[0.25,1],[0,1],[0,0.75],[0,0.5],[0,0.25]];outlineConnect=0;gradientColor=none;html=1;whiteSpace=wrap;fontSize=12;fontStyle=0;container=1;pointerEvents=0;collapsible=0;recursiveResize=0;shape=mxgraph.aws4.group;grIcon=mxgraph.aws4.group_ec2_instance_contents;strokeColor=#D86613;fillColor=none;verticalAlign=top;align=left;spacingLeft=30;fontColor=#D86613;dashed=0;" vertex="1" parent="1">
          <mxGeometry x="240" y="450" width="390" height="147" as="geometry" />
        </mxCell>
        <mxCell id="NDZWHzE1N5iHO30wIajI-4" value="" style="shape=image;html=1;verticalAlign=top;verticalLabelPosition=bottom;labelBackgroundColor=#ffffff;imageAspect=0;aspect=fixed;image=https://cdn1.iconfinder.com/data/icons/unicons-line-vol-3/24/docker-128.png" vertex="1" parent="NDZWHzE1N5iHO30wIajI-7">
          <mxGeometry x="140" y="8" width="128" height="128" as="geometry" />
        </mxCell>
        <mxCell id="NDZWHzE1N5iHO30wIajI-6" value="" style="image;aspect=fixed;perimeter=ellipsePerimeter;html=1;align=center;shadow=0;dashed=0;fontColor=#4277BB;labelBackgroundColor=default;fontSize=12;spacingTop=3;image=img/lib/ibm/infrastructure/mobile_backend.svg;" vertex="1" parent="NDZWHzE1N5iHO30wIajI-7">
          <mxGeometry x="40" y="42" width="60" height="60" as="geometry" />
        </mxCell>
        <mxCell id="NDZWHzE1N5iHO30wIajI-10" value="" style="image;aspect=fixed;perimeter=ellipsePerimeter;html=1;align=center;shadow=0;dashed=0;spacingTop=3;image=img/lib/active_directory/database_server.svg;" vertex="1" parent="NDZWHzE1N5iHO30wIajI-7">
          <mxGeometry x="290" y="34.8" width="61" height="74.39" as="geometry" />
        </mxCell>
        <mxCell id="NDZWHzE1N5iHO30wIajI-11" value="NGINX Server" style="text;html=1;align=center;verticalAlign=middle;resizable=0;points=[];autosize=1;strokeColor=none;fillColor=none;" vertex="1" parent="NDZWHzE1N5iHO30wIajI-7">
          <mxGeometry x="20" y="100" width="100" height="30" as="geometry" />
        </mxCell>
        <mxCell id="NDZWHzE1N5iHO30wIajI-12" value="Docker" style="text;html=1;align=center;verticalAlign=middle;resizable=0;points=[];autosize=1;strokeColor=none;fillColor=none;" vertex="1" parent="NDZWHzE1N5iHO30wIajI-7">
          <mxGeometry x="165" y="106" width="60" height="30" as="geometry" />
        </mxCell>
        <mxCell id="NDZWHzE1N5iHO30wIajI-13" value="FastAPI Backend" style="text;html=1;align=center;verticalAlign=middle;resizable=0;points=[];autosize=1;strokeColor=none;fillColor=none;" vertex="1" parent="1">
          <mxGeometry x="490" y="558" width="120" height="30" as="geometry" />
        </mxCell>
        <mxCell id="NDZWHzE1N5iHO30wIajI-14" value="Database" style="text;html=1;align=center;verticalAlign=middle;resizable=0;points=[];autosize=1;strokeColor=none;fillColor=none;" vertex="1" parent="1">
          <mxGeometry x="725" y="563.5" width="70" height="30" as="geometry" />
        </mxCell>
        <mxCell id="NDZWHzE1N5iHO30wIajI-15" value="User" style="text;html=1;align=center;verticalAlign=middle;resizable=0;points=[];autosize=1;strokeColor=none;fillColor=none;" vertex="1" parent="1">
          <mxGeometry x="50" y="567" width="50" height="30" as="geometry" />
        </mxCell>
        <mxCell id="NDZWHzE1N5iHO30wIajI-20" value="JSON Data" style="text;html=1;align=center;verticalAlign=middle;resizable=0;points=[];autosize=1;strokeColor=none;fillColor=none;" vertex="1" parent="1">
          <mxGeometry x="148" y="558" width="80" height="30" as="geometry" />
        </mxCell>
      </root>
    </mxGraphModel>
  </diagram>
</mxfile>
